<?xml version="1.0" encoding="UTF-8" standalone="no"?>
<!DOCTYPE svg PUBLIC "-//W3C//DTD SVG 1.1//EN"
 "http://www.w3.org/Graphics/SVG/1.1/DTD/svg11.dtd">
<!-- Generated by graphviz version 9.0.0 (20230911.1827)
 -->
<!-- Pages: 1 -->
<svg width="336pt" height="323pt"
 viewBox="0.00 0.00 336.12 322.50" xmlns="http://www.w3.org/2000/svg" xmlns:xlink="http://www.w3.org/1999/xlink">
<g id="graph0" class="graph" transform="scale(1 1) rotate(0) translate(4 318.5)">
<polygon fill="white" stroke="none" points="-4,4 -4,-318.5 332.12,-318.5 332.12,4 -4,4"/>
<!-- 1762187992720 -->
<g id="node1" class="node">
<title>1762187992720</title>
<polygon fill="orange" stroke="black" points="294.25,-37.25 15.75,-37.25 15.75,0 294.25,0 294.25,-37.25"/>
<text text-anchor="middle" x="155" y="-21.85" font-family="Times New Roman,serif" font-size="12.00">Implies</text>
<text text-anchor="middle" x="155" y="-7.6" font-family="Times New Roman,serif" font-size="12.00">(x &lt;= 40.0) =&gt; (♢ [0, 60]( ◻ [0, 10]( w &lt;= 300.0 ) ))</text>
</g>
<!-- 1756764761360 -->
<g id="node2" class="node">
<title>1756764761360</title>
<polygon fill="orange" stroke="black" points="111.88,-110.12 50.12,-110.12 50.12,-73.62 111.88,-73.62 111.88,-110.12"/>
<text text-anchor="middle" x="81" y="-94.72" font-family="Times New Roman,serif" font-size="12.00">LessThan</text>
<text text-anchor="middle" x="81" y="-80.47" font-family="Times New Roman,serif" font-size="12.00">x &lt;= 40.0</text>
</g>
<!-- 1756764761360&#45;&gt;1762187992720 -->
<g id="edge1" class="edge">
<title>1756764761360&#45;&gt;1762187992720</title>
<path fill="none" stroke="black" d="M99.29,-73.26C108.03,-64.85 118.66,-54.61 128.28,-45.35"/>
<polygon fill="black" stroke="black" points="130.54,-48.04 135.31,-38.58 125.68,-42.99 130.54,-48.04"/>
</g>
<!-- 140709976957256 -->
<g id="node3" class="node">
<title>140709976957256</title>
<polygon fill="lightcoral" stroke="black" points="54,-176.25 0,-176.25 0,-154 54,-154 54,-176.25"/>
<text text-anchor="middle" x="27" y="-160.85" font-family="Times New Roman,serif" font-size="12.00">x</text>
</g>
<!-- 140709976957256&#45;&gt;1756764761360 -->
<g id="edge2" class="edge">
<title>140709976957256&#45;&gt;1756764761360</title>
<path fill="none" stroke="black" d="M34.97,-153.61C41.73,-144.69 51.73,-131.5 60.68,-119.69"/>
<polygon fill="black" stroke="black" points="63.39,-121.91 66.64,-111.83 57.81,-117.68 63.39,-121.91"/>
</g>
<!-- 1762187980688 -->
<g id="node4" class="node">
<title>1762187980688</title>
<polygon fill="palegreen" stroke="black" points="126,-176.25 72,-176.25 72,-154 126,-154 126,-176.25"/>
<text text-anchor="middle" x="99" y="-160.85" font-family="Times New Roman,serif" font-size="12.00">40.0</text>
</g>
<!-- 1762187980688&#45;&gt;1756764761360 -->
<g id="edge3" class="edge">
<title>1762187980688&#45;&gt;1756764761360</title>
<path fill="none" stroke="black" d="M96.34,-153.61C94.2,-145.13 91.09,-132.8 88.22,-121.45"/>
<polygon fill="black" stroke="black" points="91.7,-120.92 85.85,-112.09 84.91,-122.64 91.7,-120.92"/>
</g>
<!-- 1760540501456 -->
<g id="node5" class="node">
<title>1760540501456</title>
<polygon fill="orange" stroke="black" points="328.12,-110.5 129.88,-110.5 129.88,-73.25 328.12,-73.25 328.12,-110.5"/>
<text text-anchor="middle" x="229" y="-95.1" font-family="Times New Roman,serif" font-size="12.00">Eventually</text>
<text text-anchor="middle" x="229" y="-80.85" font-family="Times New Roman,serif" font-size="12.00">♢ [0, 60]( ◻ [0, 10]( w &lt;= 300.0 ) )</text>
</g>
<!-- 1760540501456&#45;&gt;1762187992720 -->
<g id="edge4" class="edge">
<title>1760540501456&#45;&gt;1762187992720</title>
<path fill="none" stroke="black" d="M210.33,-72.9C201.65,-64.54 191.18,-54.46 181.68,-45.32"/>
<polygon fill="black" stroke="black" points="184.39,-43.06 174.76,-38.65 179.53,-48.11 184.39,-43.06"/>
</g>
<!-- 1757475259472 -->
<g id="node6" class="node">
<title>1757475259472</title>
<polygon fill="orange" stroke="black" points="296.25,-183.75 161.75,-183.75 161.75,-146.5 296.25,-146.5 296.25,-183.75"/>
<text text-anchor="middle" x="229" y="-168.35" font-family="Times New Roman,serif" font-size="12.00">Always</text>
<text text-anchor="middle" x="229" y="-154.1" font-family="Times New Roman,serif" font-size="12.00">◻ [0, 10]( w &lt;= 300.0 )</text>
</g>
<!-- 1757475259472&#45;&gt;1760540501456 -->
<g id="edge5" class="edge">
<title>1757475259472&#45;&gt;1760540501456</title>
<path fill="none" stroke="black" d="M229,-146.15C229,-138.83 229,-130.19 229,-122.02"/>
<polygon fill="black" stroke="black" points="232.5,-122.12 229,-112.12 225.5,-122.12 232.5,-122.12"/>
</g>
<!-- 1759374112336 -->
<g id="node7" class="node">
<title>1759374112336</title>
<polygon fill="orange" stroke="black" points="264.38,-256.25 193.62,-256.25 193.62,-219.75 264.38,-219.75 264.38,-256.25"/>
<text text-anchor="middle" x="229" y="-240.85" font-family="Times New Roman,serif" font-size="12.00">LessThan</text>
<text text-anchor="middle" x="229" y="-226.6" font-family="Times New Roman,serif" font-size="12.00">w &lt;= 300.0</text>
</g>
<!-- 1759374112336&#45;&gt;1757475259472 -->
<g id="edge6" class="edge">
<title>1759374112336&#45;&gt;1757475259472</title>
<path fill="none" stroke="black" d="M229,-219.48C229,-212.21 229,-203.57 229,-195.39"/>
<polygon fill="black" stroke="black" points="232.5,-195.45 229,-185.45 225.5,-195.45 232.5,-195.45"/>
</g>
<!-- 140709977159392 -->
<g id="node8" class="node">
<title>140709977159392</title>
<polygon fill="lightcoral" stroke="black" points="220,-314.5 166,-314.5 166,-292.25 220,-292.25 220,-314.5"/>
<text text-anchor="middle" x="193" y="-299.1" font-family="Times New Roman,serif" font-size="12.00">w</text>
</g>
<!-- 140709977159392&#45;&gt;1759374112336 -->
<g id="edge7" class="edge">
<title>140709977159392&#45;&gt;1759374112336</title>
<path fill="none" stroke="black" d="M198.94,-291.91C202.89,-284.96 208.27,-275.49 213.39,-266.49"/>
<polygon fill="black" stroke="black" points="216.32,-268.41 218.21,-257.99 210.23,-264.96 216.32,-268.41"/>
</g>
<!-- 1759519792336 -->
<g id="node9" class="node">
<title>1759519792336</title>
<polygon fill="palegreen" stroke="black" points="292,-314.5 238,-314.5 238,-292.25 292,-292.25 292,-314.5"/>
<text text-anchor="middle" x="265" y="-299.1" font-family="Times New Roman,serif" font-size="12.00">300.0</text>
</g>
<!-- 1759519792336&#45;&gt;1759374112336 -->
<g id="edge8" class="edge">
<title>1759519792336&#45;&gt;1759374112336</title>
<path fill="none" stroke="black" d="M259.06,-291.91C255.11,-284.96 249.73,-275.49 244.61,-266.49"/>
<polygon fill="black" stroke="black" points="247.77,-264.96 239.79,-257.99 241.68,-268.41 247.77,-264.96"/>
</g>
</g>
</svg>
